<svg xmlns="http://www.w3.org/2000/svg" viewBox="0 0 520 220" role="img" aria-labelledby="title desc">
  <title id="title">원카드</title>
  <desc id="desc">카드 세 장과 금빛 원카드 글자가 있는 게임 로고</desc>
  <defs>
    <linearGradient id="gold" x1="0" y1="0" x2="0" y2="1">
      <stop offset="0" stop-color="#fff1a5"/>
      <stop offset=".48" stop-color="#f6c54f"/>
      <stop offset="1" stop-color="#b87313"/>
    </linearGradient>
    <filter id="shadow" x="-30%" y="-30%" width="160%" height="170%">
      <feDropShadow dx="0" dy="9" stdDeviation="8" flood-color="#001e17" flood-opacity=".6"/>
    </filter>
  </defs>
  <g filter="url(#shadow)">
    <g transform="translate(126 20) rotate(-13 53 72)">
      <rect width="106" height="144" rx="13" fill="#fffaf0" stroke="#e2d4ad" stroke-width="5"/>
      <text x="15" y="31" fill="#1c2020" font-family="Georgia,serif" font-size="24" font-weight="700">A</text>
      <path d="M53 44c-21 25-30 35-30 50a18 18 0 0 0 31 12c-2 10-7 17-14 24h27c-7-7-12-14-14-24a18 18 0 0 0 31-12c0-15-10-25-31-50Z" fill="#171d1b"/>
    </g>
    <g transform="translate(208 7) rotate(-2 53 72)">
      <rect width="106" height="144" rx="13" fill="#fffaf0" stroke="#e2d4ad" stroke-width="5"/>
      <text x="15" y="31" fill="#c72c38" font-family="Georgia,serif" font-size="24" font-weight="700">7</text>
      <path d="M53 116C12 88 27 49 53 67c26-18 41 21 0 49Z" fill="#c72c38"/>
    </g>
    <g transform="translate(290 20) rotate(11 53 72)">
      <rect width="106" height="144" rx="13" fill="#fffaf0" stroke="#e2d4ad" stroke-width="5"/>
      <text x="15" y="31" fill="#c72c38" font-family="Georgia,serif" font-size="24" font-weight="700">K</text>
      <path d="m53 48 25 28-25 28-25-28Z" fill="#c72c38"/>
    </g>
    <path d="M102 147h316l-27 60H129Z" fill="#073a2c" stroke="#dba532" stroke-width="5"/>
    <text x="260" y="194" text-anchor="middle" fill="url(#gold)" stroke="#6c4007" stroke-width="2" paint-order="stroke" font-family="Noto Sans KR,Malgun Gothic,sans-serif" font-size="64" font-weight="900" letter-spacing="5">원카드</text>
  </g>
</svg>
